<?xml version="1.0" encoding="utf-8"?>
<!-- Generator: Adobe Illustrator 21.0.0, SVG Export Plug-In . SVG Version: 6.00 Build 0)  -->
<svg version="1.1" id="图层_1" xmlns="http://www.w3.org/2000/svg" xmlns:xlink="http://www.w3.org/1999/xlink" x="0px" y="0px"
	 viewBox="0 0 23.8 33" style="enable-background:new 0 0 23.8 33;" xml:space="preserve">
<style type="text/css">
	.st0{fill-rule:evenodd;clip-rule:evenodd;fill:url(#SVGID_1_);}
	.st1{fill-rule:evenodd;clip-rule:evenodd;fill:url(#SVGID_2_);}
	.st2{fill-rule:evenodd;clip-rule:evenodd;}
</style>
<g>
	<linearGradient id="SVGID_1_" gradientUnits="userSpaceOnUse" x1="11.9455" y1="10.5319" x2="11.8508" y2="25.8864">
		<stop  offset="0" style="stop-color:#E8380D"/>
		<stop  offset="0.5" style="stop-color:#DAE000"/>
		<stop  offset="0.76" style="stop-color:#00A0E9"/>
		<stop  offset="1" style="stop-color:#005BAC"/>
	</linearGradient>
	<path class="st0" d="M13.9,22.8c0,0-0.6,0.1-0.6,0.1c0,0-0.2,0-0.2,0c0,0-0.1,0-0.1,0c0,0,0,0,0,0c-0.2,0-0.3-0.1-0.4,0
		c-0.1,0-0.3-0.1-0.3,0c-0.1,0-0.3,0-0.5,0c-0.1,0.1-0.4-0.1-0.4,0c-0.1-0.1-0.3,0-0.5,0c-0.1,0-0.1,0-0.2,0c-0.1-0.1-0.1-0.1-0.2,0
		c0,0,0,0,0,0c-0.2,0-0.3,0-0.5-0.1c0,0,0,0,0,0c-0.1,0-0.2,0-0.3,0c0,0,0,0,0,0c0,0-0.1,0-0.4-0.1c0,0,0,0,0,0
		c-0.1,0-0.3,0-0.4-0.1c-0.2,0-0.3,0.1-0.3-0.1c-0.1,0-0.5,0-0.5-0.1c0,0-0.1,0-0.1,0c0,0,0-0.1,0-0.1c0,0,0,0,0,0c0,0,0,0,0,0
		c-0.1,0-0.1,0-0.1,0c0,0.1,0,0.1,0,0.2c-0.2,0-0.6,0-0.8-0.1c0,0-0.1,0-0.1,0c0,0,0,0,0,0c0.1,0,0.1,0.1,0.1,0.2c0,0-0.1,0-0.1,0
		l0,0c0,0-0.1,0-0.1,0c0,0,0,0-0.1,0c0,0,0,0-0.1-0.1c0,0,0,0,0,0c0,0,0,0-0.1,0c0,0,0,0,0-0.1c0,0-0.2,0-0.4-0.1c0,0,0,0,0,0
		c0,0-0.1,0-0.1,0c0,0,0,0,0,0.1c-0.3-0.1-0.6-0.1-1-0.2c-0.1,0-0.1,0-0.2,0l0,0c0,0-0.1,0-0.1,0l0,0c0,0,0,0-0.1,0c0,0,0,0-0.1,0
		c0,0,0,0,0,0c0,0,0,0,0.1,0c0,0,0,0,0,0c0,0,0,0,0,0.1c0.2,0.1,0.2,0.1,0.2,0.1c0,0,0,0,0,0c0,0,0,0-0.1,0c0,0,0,0,0,0
		c0.1,0,0.1,0,0.2,0c0.1,0,0.1,0.1,0.2,0.1c0,0,0.1,0,0.1,0c0,0,0,0,0,0c0,0,0,0,0,0c0,0,0,0,0,0c0.1,0,0.3,0.1,0.4,0.1l0,0l0,0
		c0,0,0.1,0,0.1,0c0,0,0,0,0,0c0,0,0.1,0,0.1,0c0,0,0,0,0.1,0c0,0,0,0,0,0c0,0,0,0,0.1,0c0,0,0,0,0,0l0,0c0.1,0,0.2,0,0.2,0
		c0.1,0,0.2,0.1,0.3,0.1c0,0,0,0,0,0.1c0,0,0,0,0.1,0l0,0c0,0,0.1,0,0.1,0l0,0c0.1,0,0.2,0.1,0.3,0.1c0,0,0,0,0,0.1
		c-0.2,0-0.3,0-0.4,0c-0.2,0.1-0.5,0-0.7-0.1c0,0,0,0,0,0.1c0,0-0.2,0-0.4,0c0,0,0,0,0,0c-0.2,0.1-0.5,0-0.7-0.1
		c0-0.1,0-0.1-0.1-0.1c0,0-0.1,0-0.1,0.1c0,0,0,0,0,0c0,0,0,0,0-0.1c0,0-0.1,0-0.1,0c-0.1,0-0.1,0-0.2,0c0,0,0,0,0,0c0,0,0,0,0,0.1
		c0,0-0.1,0-0.1,0c0-0.1-0.1-0.1-0.1-0.1c0,0,0,0,0-0.1c0,0,0,0,0,0.1c0,0,0,0,0,0c0,0,0,0,0,0c-0.2,0-0.2,0-0.3,0
		c0-0.1-0.1-0.1-0.1-0.1c0,0,0,0,0,0c0,0-0.1,0-0.1,0c0,0,0,0,0.1,0.1c-0.1,0-0.1,0-0.2,0c0,0,0,0,0-0.1c0,0,0,0-0.1,0
		c0,0,0,0.1,0,0.1c0,0,0,0-0.3,0c0,0,0-0.1,0-0.1c0,0-0.1,0-0.2,0c0,0,0,0,0,0c0,0,0,0,0,0c0,0,0,0,0.1,0c0,0,0,0,0.1,0.1
		c0,0,0,0,0,0c-0.1,0-0.3,0-0.4-0.1c0,0,0,0-0.1,0c0,0,0,0-0.1,0C2,22.1,1.9,22.1,1.7,22c0-0.1-0.1,0-0.1,0c0,0-0.9-0.2-1-0.2
		c0,0,0,0-0.1,0c0,0,0,0-0.1,0c0,0,0,0,0.1,0.1c0,0,0,0,0.1,0c0,0,0,0,0,0c0,0,0,0,0,0c0,0,0,0,0,0c0,0,0,0,0,0c0,0,0,0,0-0.1
		c0,0,0,0,0.1,0c0,0,0,0,0,0c0,0,0,0,0,0c0,0,0,0,0,0c0,0,0,0,0,0c0,0,0,0,0-0.1c0.1,0,0.2,0,0.2,0.1c0,0,0,0,0,0c0,0,0,0,0,0.1
		c0.1,0,0-0.1,0.1,0c0,0.1,0.2,0.1,0.3,0.1c0,0,0,0,0,0c0,0,0,0,0,0c0,0,0.1,0,0.1,0.1c0,0,0.1,0,0.1,0c0,0,0,0,0-0.1c0,0,0,0,0.1,0
		c0,0,0,0.1,0.1,0.1c0.1,0,0.2,0,0.3,0c0,0,0,0,0,0c0,0,0,0,0.1,0c0,0,0,0,0-0.1c0,0,0,0,0,0c0,0,0,0,0.1,0c0,0,0,0,0,0
		c0.1,0,0.1,0,0.2,0.1c0.1,0,0.3,0.1,0.3,0c0,0,0.1,0,0.1,0c0,0,0,0.1,0,0.1c0.1,0,0.1,0,0.2,0c0,0,0,0,0,0c0,0,0,0.1,0,0.1
		c0,0,0,0,0.1-0.1c0.1,0,0.2,0.1,0.3,0.1c0,0,0,0,0,0c0,0,0,0,0,0c0,0,0,0,0.1,0c0,0,0,0,0,0c0,0,0,0,0.1,0c0,0,0,0,0,0.1
		c0,0,0,0,0,0c0,0,0,0,0.1,0c0,0,0,0.1,0,0.1c0.1,0,0.2,0.1,0.3,0c0,0,0,0,0,0c0,0,0.1,0,0.1,0.1c0,0,0.1,0,0.1,0
		c0.1,0,0.2,0.1,0.3,0.1c0.2,0.1,0.5,0,0.8,0.2c0.1,0.1,0.1,0.1,0,0.2c0,0,0,0,0,0c0,0,0,0,0,0c0,0,0,0,0,0c0,0,0,0-0.1,0
		c0,0,0,0,0,0c0,0,0,0,0,0.1c0,0,0,0,0.1,0c0,0,0,0,0.1,0c0,0,0.1,0,0.1,0.1c0,0,0,0-0.1,0c0,0,0,0,0,0c0,0,0,0-0.1,0c0,0,0,0,0-0.1
		c0,0,0,0-0.1,0c0,0,0,0,0,0.1c0,0,0,0,0,0c-0.2,0-0.5,0-0.7,0c0,0,0,0,0,0c-0.1,0-0.1-0.1-0.2-0.1c0,0,0,0-0.1,0
		c0-0.1-0.1-0.1-0.2-0.1c0,0,0,0.1,0,0.1c0,0-0.1,0-0.1,0c-0.4,0-0.7-0.1-1-0.1c-0.1,0-0.4-0.1-0.5-0.1c0,0,0,0,0,0
		c0,0,0.1,0,0.1,0.1c0.1,0,0.2,0,0.4,0c0.1,0,0.1,0,0.2,0c0,0,0,0.1,0,0.1c0.1,0,0.2,0,0.3,0c0,0,0,0,0,0c0,0,0,0,0,0
		c0.1,0,0.1,0,0.2,0c0,0,0,0,0,0.1c0,0,0,0,0.1,0c0,0,0,0,0,0c0.1,0,0.1,0.1,0.1,0.1c0,0.1,0.1,0,0.1,0.1c0,0,0,0,0,0.1
		c0,0,0.1,0,0.1,0c0.1,0,0.1,0,0.2,0c0,0,0,0,0-0.1c0.1,0,0.2,0,0.3,0.1c0,0,0,0,0,0c0,0,0,0,0.1,0c0,0,0,0,0,0
		c0.1,0.1,0.1,0.1,0.2,0.1c0,0,0,0,0,0c0,0,0.1,0,0.1,0c0,0,0,0,0,0c0,0,0.1,0,0.1,0c0,0,0,0,0.1,0c0.1,0,0.1,0.1,0.2,0.1
		C5.9,24,6.1,24,6.3,24.1c0.2,0,0.4,0.1,0.7,0.2c0.2,0,0.3,0.1,0.5,0.1c0.1-0.1,0.5,0.1,0.6,0.2c0.1,0,0.2,0,0.2,0
		c0,0,0.6,0.2,0.7,0.2c0,0,0,0,0,0c0,0,0,0,0,0c0,0.1,0.1,0,0.1,0.1c0,0,0,0-0.1,0c0,0,0,0,0,0c0,0,0.1,0,0.1,0c0,0,0,0,0,0
		c0,0,0,0,0,0.1c0,0,0.1,0,0.1,0c0,0,0,0,0,0c0,0,0,0,0.1,0c0,0,0,0,0,0c0,0,0,0,0,0c0,0,0,0,0,0c0,0,0,0,0,0c0.1,0,0.2,0,0.2,0.1
		c0,0,0,0,0,0c0,0,0.1,0,0.1,0c0,0,0,0,0,0c-0.1,0-0.3,0-0.5,0c0,0,0,0-0.1,0C8.9,25,8.5,25,8,24.9c0,0,0,0,0,0c0,0,0,0,0,0
		c0-0.1-0.4-0.1-0.5-0.1c0,0,0,0,0,0c0,0,0,0,0,0c-0.1,0-0.1,0-0.2,0c-0.1,0-0.1-0.1-0.2-0.1c0,0,0,0.1,0,0.1c0,0,0,0,0,0
		c0.1,0,0.1,0,0.1,0C7.3,25,7.5,25,7.2,25c-0.1,0-0.1,0-0.1,0c0,0,0,0,0,0c0,0,0,0,0.1,0c0,0,0-0.1,0-0.1c-0.1,0-0.1,0-0.1,0
		c0,0,0,0,0,0.1C7,25,7,25,6.9,25c0,0,0,0,0,0c0,0-0.1,0-0.1,0c0,0,0,0,0,0c-0.2,0-0.5,0-0.6-0.1c-0.1,0-0.1,0-0.2-0.1
		c-0.3,0-0.2-0.1-0.2-0.2c0,0,0,0-0.1,0c-0.2,0-0.2,0-0.2,0c0,0,0.1,0.1,0.1,0.1c0,0,0,0.1,0,0.1c0,0,0,0,0.1,0c0,0,0,0,0,0.1
		c-0.1,0.1-0.4,0-0.5,0c0,0,0,0,0,0c0,0,0,0,0.1,0c0,0,0,0,0,0c0,0,0,0-0.1,0c0,0,0,0-0.1,0c0,0,0,0,0,0c0,0,0,0,0,0c0,0,0,0,0,0
		c0,0,0,0,0.1,0c0.1,0,0.1,0,0.2,0c0,0,0,0,0-0.1c0,0,0,0-0.1,0c0,0,0.2,0,0.3,0c0,0,0,0,0,0c-0.1,0-0.1,0-0.1-0.1
		c0,0-0.2,0-0.2-0.1c0,0,0,0,0,0c0,0,0,0,0-0.1c-0.1,0-0.1,0-0.1,0c-0.1,0-0.1,0-0.1-0.1c0,0-0.1,0-0.1,0c0,0,0,0,0,0c0,0,0,0,0.1,0
		c0,0,0,0,0,0c0,0,0,0-0.1,0c0,0,0,0,0,0c0,0,0,0-0.2,0c0,0,0,0,0,0c0,0,0,0,0,0c0,0,0,0-0.1,0c0,0-0.2,0-0.2-0.1
		c-0.2,0-0.3,0-0.5,0c0,0,0,0,0,0.1c-0.1,0-0.1,0-0.1,0c0,0,0,0,0,0c-0.1,0-0.1,0-0.2,0c0-0.1,0-0.1-0.1-0.1c0,0,0,0,0,0.1
		c0,0,0,0-0.1,0c0,0,0,0,0,0c-0.2-0.1-0.7-0.1-1-0.1c-0.1,0-0.1,0-0.2,0c0,0,0,0,0,0c0,0-0.1,0-0.1,0c0,0,0,0,0,0c0.1,0,0.2,0,0.3,0
		c0,0,0.1,0,0.1,0c0,0,0,0,0.1,0c0,0,0,0,0,0c0.1,0,0.1,0,0.2,0c0,0.1,0.2,0,0.3,0.1c0,0,0,0,0,0c0,0,0,0,0,0.1c0,0,0,0,0,0
		c0.1-0.1,0.2-0.1,0.3,0c0.1,0,0.1,0,0.2,0.1c0.1,0,0.1,0.1,0.3,0.1c0,0.1,0.1,0,0.2,0.1c0,0,0,0,0,0c0,0,0.1,0,0.1,0c0,0,0,0,0,0
		c0,0,0,0,0-0.1c0,0,0,0-0.1,0c0,0,0,0,0,0c0,0,0,0,0.1,0c0,0,0,0,0,0c0.1,0.2,0.2,0.2,0.4,0.2c0,0,0,0,0,0c0,0,0.1,0,0.1,0
		c0,0,0,0,0,0c0,0,0.1,0,0.1,0c0,0,0,0,0,0.1c0,0-0.1,0-0.1,0c0,0,0,0,0,0c0.1,0.1,0.1,0,0.2,0.1c0,0,0.1,0,0.1,0c0,0,0,0,0,0.1
		c0,0,0,0,0,0c0,0,0,0,0.1,0c0,0,0,0,0,0c0,0,0,0,0.1,0c0,0,0,0,0,0.1c0,0,0,0,0.1,0c0,0,0,0,0,0c0,0,0,0,0,0c0,0,0,0,0,0
		c0,0,0,0,0,0c0.1,0,0.7,0.2,0.8,0.2c0.3,0,0.7,0.2,1,0.2c0.1,0,0.1,0,0.2,0c0,0,0,0,0.1,0c0,0,0,0,0,0c0,0,0.1,0.1,0.1,0.1
		c0,0,0,0,0,0c0,0,0.1,0,0.2,0.1c0,0,0.1,0,0.1,0c0,0,0,0,0,0c0,0,0.1,0,0.1,0c0.2,0.1,0.3,0.1,0.6,0.2c0,0,0,0,0,0
		c0.1,0,0.2,0,0.3,0c0,0,0,0,0,0c0,0,0,0,0,0c0,0,0,0,0,0c-0.1,0-0.3,0-0.4,0c-0.1,0-0.1,0-0.1,0c0,0,0,0-0.1,0c0,0,0,0,0.1,0
		c0,0,0.1,0,0.1,0c0,0,0,0,0,0c-0.3,0-0.5-0.1-0.8-0.1c-0.1-0.1-0.2,0-0.3,0c0,0-1.8-0.4-2-0.4c0,0,0,0,0,0c0,0,0.1,0,0.1,0.1
		c0,0,0,0,0.1,0c0.1,0,0.1,0,0.2,0c0,0,0,0,0,0.1c0,0,0.1,0,0.1,0c0.2,0,0.4,0,0.5,0.1c0,0,0.1,0,0.1,0c0,0,0,0.1,0,0.1
		c0.1,0,0-0.1,0.3,0c0.1,0.2,0.3,0.2,0.6,0.2c0,0,0,0,0-0.1c0,0,0.1,0,0.1,0C7.6,25.9,7.7,26,7.7,26c0.1,0,0.1,0,0.2-0.1
		c0,0,0-0.1,0-0.1c0,0,0.1,0,0.1,0c0,0.1,0.1,0.2,0.2,0.2c0.2,0,0.3,0.1,0.6,0c0,0,0-0.1,0-0.1c0.1,0,0.1,0,0.2,0c0,0,0,0,0,0.1
		c0.1,0,0.3,0.1,0.2,0.1c0,0-0.2,0-0.2,0c-0.1,0-0.4,0-0.1,0c0.2,0,0.5,0.1,0.8,0.1c0.3,0,0.5,0,0.8,0.1c0,0,0,0,0,0
		c0.2,0,0.5,0,0.8,0c0,0,0,0,0,0c0.2,0,0.1,0,0.3,0c0,0,0.2,0,0.2,0c0.1,0,0.3,0,0.4,0c0,0,0,0,0,0.1c0.2,0,0.6,0,0.8,0
		c0.4,0,0.8,0,1.2-0.1c0,0,0.1,0,0.1,0c0.1,0,0.3,0,0.4,0c0,0,0.1,0,0.1,0c0.3,0,1.5-0.2,1.8-0.3c0.5-0.1,0.7-0.2,1-0.2
		c0.2-0.1,0.3-0.1,0.9-0.3c0,0,0.1-0.1,0.2-0.1c0,0,0.1,0,0.1,0c0.1-0.1,0.3-0.1,0.4-0.1c0.1-0.1,0.1-0.2,0.2-0.2
		c0.1-0.1,0.2-0.1,0.2-0.2c0,0,0,0,0,0c0,0,0,0,0-0.1c0.1,0,0.4-0.1,0.4-0.2c0,0,0,0,0,0c0.1-0.1,0.3-0.1,0.3-0.3
		c0.3,0,0.2-0.2,0.3-0.2c0,0,0,0,0,0c0.1,0,0.3-0.1,0.3-0.2c0,0,0,0,0,0c0,0,0-0.1,0-0.1c0,0,0,0,0.1,0c0.1-0.1,0.1-0.1,0.2-0.1
		c0.1-0.2,0-0.1,0.2-0.1c0-0.1,0.1-0.2,0.1-0.4c0.1,0,0.1-0.1,0.2-0.1c0,0,0,0,0.1-0.1c0,0,0.1,0,0.1,0c0-0.1,0.1-0.1,0.1-0.2
		c0,0,0,0,0,0c0,0,0-0.1,0-0.1c0.1,0-0.1-0.1,0-0.1c0,0,0,0,0,0c0.1,0,0.1-0.1,0.2-0.1c0,0,0,0,0,0c0,0,0,0,0,0
		c0-0.2,0.1-0.2,0.1-0.3c0.1-0.1,0.2-0.1,0.2-0.2c0,0,0.1,0,0.1,0c0,0,0-0.1,0-0.1c0.1-0.1,0-0.1,0.1-0.2c0.1,0,0.1,0,0.2,0
		c0,0,0-0.1,0-0.1c0.2-0.1,0.1-0.2,0.2-0.3c0,0,0,0,0,0c0,0,0-0.1,0-0.1c0,0,0.1,0,0.1-0.1c0,0,0.1-0.1,0.1-0.3c0-0.1,0-0.2,0-0.2
		c0,0,0.1,0,0.1,0c0,0,0-0.1,0-0.1c0,0,0,0,0,0c0-0.1,0-0.2,0.2-0.2c0,0,0-0.1,0-0.1c-0.1-0.1,0-0.2,0-0.4c0.1,0,0.1-0.2,0.2-0.3
		c-0.2-0.1-0.1-0.2-0.1-0.4c0.1-0.1,0.1-0.3,0.1-0.4c0.2-0.1,0-0.2,0-0.4c0.2,0,0.1-0.4,0.1-0.5c0.1-0.1,0.1-0.3,0.1-0.4
		c-0.1-0.2,0-0.2,0-0.3c0.2-0.3-0.1-0.6,0-0.8c0,0-0.1,0-0.1,0c0,0,0,0,0,0c0,0,0,0,0,0c0,0,0-0.1,0-0.1c0.1,0,0.1-0.1,0.1-0.2
		c-0.2-0.1-0.3-0.3-0.2-0.5c0-0.2-0.1-0.1-0.2-0.1c0,0,0,0,0,0c0,0,0-0.1,0-0.1c0,0,0,0,0,0c0,0,0.1-0.1,0.1-0.1
		c0-0.1,0-0.1-0.1-0.2c-0.1-0.1-0.1-0.1-0.1-0.3c-0.1-0.1,0-0.2,0-0.3c-0.1,0-0.2,0-0.3,0c0-0.1,0-0.4-0.2-0.4c0,0,0,0,0,0.1
		c-0.1-0.2-0.1-0.1-0.1-0.4c-0.1,0-0.1,0-0.1-0.1c0,0-0.1,0-0.1,0c0-0.3,0.1-0.4-0.1-0.5c0-0.1-0.1-0.1-0.1-0.2c0,0-0.1,0-0.1,0
		c0,0,0-0.1,0-0.1c0,0,0,0,0,0c0,0,0,0,0-0.1c0,0,0,0-0.1,0c0-0.1-0.1-0.1-0.1-0.3c0.1,0,0-0.1-0.1-0.1c-0.1-0.3-0.2-0.2-0.4-0.3
		c0,0,0,0,0-0.1c-0.1,0-0.1,0-0.2-0.1c-0.1-0.2-0.1-0.3-0.3-0.3c0,0-0.1,0-0.1,0.1c-0.1-0.1-0.1-0.2-0.2-0.2
		c-0.1-0.1-0.3-0.2-0.4-0.2c0,0,0,0,0-0.1c0.1-0.1-0.2-0.2-0.2-0.3c-0.1,0-0.2-0.1-0.2-0.1c-0.3,0-0.4,0-0.5-0.3c-0.1,0-0.1,0-0.2,0
		c-0.1-0.1-0.2,0-0.2,0c-0.1,0-0.1,0-0.1-0.1c0,0-0.3,0-0.2,0c0,0,0-0.1,0-0.1c-0.2-0.1-0.2,0-0.3,0c-0.1-0.1-0.3,0-0.3-0.1
		c-0.2,0-0.2,0-0.3-0.2c-0.1,0-0.3-0.1-0.3,0c-0.1,0-0.1,0-0.2,0c-0.2,0.2-0.1-0.1-0.3,0c-0.1-0.1-0.1-0.1-0.2-0.1
		c0,0.1-0.1,0.1-0.1,0.1c0,0-0.1,0-0.1-0.1c0,0.1-0.2,0-0.1,0.1c0,0,0,0-0.1,0c0-0.1-0.1-0.1-0.1-0.1c-0.1,0.1-0.1,0-0.3,0
		c0,0,0,0,0,0c-0.1,0-0.2,0-0.2,0.1c0,0,0,0,0,0.1c-0.1,0-0.2-0.1-0.3-0.1c0,0,0,0.1,0,0.1c-0.2,0-0.2,0-0.4,0
		c-0.1,0.1-0.1,0.1-0.2,0.1c0-0.1-0.1,0-0.1-0.1c-0.1,0-0.1,0-0.1,0c-0.2,0-0.2,0-0.4,0.1c0,0-0.1,0-0.1,0c0,0.1-0.1,0.1-0.1,0.1
		c-0.1,0.2-0.1,0.1-0.4,0.1c-0.2,0-0.3,0.1-0.4,0.3c-0.1,0-0.2,0.1-0.3,0.1c0,0,0,0-0.1,0c-0.1,0.1-0.2,0.2-0.3,0.2c0,0,0,0,0,0
		c-0.1,0-0.1,0-0.2,0.1c-0.3,0-0.3,0.1-0.6,0.3c-0.2,0-0.2,0-0.2,0.2c0,0-0.1,0-0.1,0c0,0.1-0.3,0.1-0.3,0.2c0,0,0,0-0.1,0
		c0,0,0,0.1,0,0.1c0,0,0,0,0,0c0,0.2,0,0.2-0.2,0.2c0,0,0,0,0,0c-0.1,0,0,0.1-0.1,0.1c0,0,0,0,0,0c-0.1,0-0.1,0-0.2,0
		c0,0,0,0.1,0,0.1c-0.1,0.1-0.1,0.1-0.3,0.2c0,0,0,0.1,0,0.1c-0.1,0.1-0.1,0-0.1,0.2C9.7,13,9.6,13,9.6,13.2c-0.1,0,0,0.3,0,0.2
		c0,0,0,0,0,0c0,0,0,0,0,0c0,0,0,0,0,0c-0.1,0,0,0.1-0.1,0.1c0,0.1-0.1,0.1-0.1,0.2c0,0,0,0-0.1,0.1c-0.1,0.2-0.2,0.2-0.1,0.4
		c0,0.2-0.2,0.2-0.2,0.4c0.1,0.1,0,0.1-0.1,0.2c0,0.1,0,0.1,0,0.2c-0.1,0-0.1,0.1-0.1,0.1c0,0.1,0,0.1,0,0.2c0,0,0,0.2,0,0.2
		c0,0.1-0.1,0.1,0,0.2c0,0.1,0.1,0.2,0,0.3c0,0.2-0.2,0.3,0,0.3c0,0.1,0,0,0,0.1c-0.1,0.1-0.2,0.2-0.1,0.4c0.2,0.1,0.1,0.1,0.1,0.3
		c0,0,0,0,0,0c0,0.1-0.1,0.2-0.1,0.2c0,0,0,0,0,0c0,0.1,0.1,0.1,0.1,0.2c0,0-0.1,0-0.1,0c0,0.1,0.1,0.1,0.2,0.2c0,0,0,0-0.1,0
		c0,0.1,0,0.1,0,0.2c0.1,0,0.1,0.1,0.1,0.2c0.1,0.1,0.1,0,0.2,0.2c-0.3-0.1,0,0.3,0.1,0.3c0,0.1,0.1,0.2,0.1,0.2
		c0,0.1,0.2,0.1,0.2,0.2c0,0,0,0,0,0c0,0.1,0.1,0.1,0.2,0.2c0.1,0,0.1,0,0.1,0c0,0.2,0.1,0.1,0.1,0.2c0.1,0,0.2,0.1,0.3,0.1
		c0,0,0,0,0,0.1c0.1,0,0.1,0.1,0.1,0.1c0,0,0.1,0.1,0.2,0.1c0.1,0.1,0.2,0.1,0.3,0.1c0.3,0.1,0.2,0.2,0.4,0.1
		c0.1,0.2,0.1,0.1,0.3,0.1c0.1,0,0.2,0.1,0.2,0.2c0,0,0.1,0,0.2,0c0.1,0,0.1-0.1,0.2,0c0,0,0,0.1,0,0.1c0,0,0.6,0,0.7,0c0,0,0,0,0,0
		c0.1,0.1,0.4,0,0.6-0.1c0,0,0,0,0,0c0,0,0,0,0,0c1.2-0.2,2.3-0.7,2.6-2c0.2-0.8,0-1.8-0.8-2.3c-1.1-0.8-2.8-0.5-4-0.3
		c-0.6,0.1-0.5-0.1-0.4-0.4c0.1-0.4,0.2-0.3,0.5-0.6c0.4-0.3,0.9-0.6,1.4-0.9c0.2-0.2,0.4-0.2,0.6-0.2c0.4,0,0.7-0.2,0.9-0.4
		c0.1-0.2,0.3-0.3,0.5-0.5c0.3-0.2,0.2,0.1,0.1,0.3c-0.2,0.4,0.2,0.4,0.5,0.3c0.5-0.2,1-0.6,1.1-1c0.2-0.4,0.8-0.1,0.5,0.2
		c-0.2,0.2-0.1,0.3,0.1,0.3c0.7,0,1.3-0.4,1.6-0.8c0.4-0.5,1,0,0.6,0.6c-0.3,0.4-0.9,0.6-1.4,0.7c-0.6,0.1-1.3,0.2-1.9,0.4
		c-0.3,0.1-0.3,0.1,0.1,0.3c0.2,0.1,0.3,0.1,0.5,0.2c2.6,1,3.3,3.3,2.3,5c-0.7,1.3-2,2.2-3.4,2.6C15.1,22.6,14.5,22.7,13.9,22.8
		L13.9,22.8z M0.1,21.7c-0.1,0-0.1,0-0.1,0C0,21.7,0.1,21.7,0.1,21.7C0.1,21.7,0.1,21.7,0.1,21.7L0.1,21.7z M6.5,22.3L6.5,22.3
		C6.5,22.3,6.5,22.3,6.5,22.3C6.5,22.3,6.5,22.3,6.5,22.3L6.5,22.3z M0,21C0,21,0,21,0,21C0,21-0.1,21,0,21C-0.1,21-0.1,21,0,21
		C-0.1,21-0.1,21,0,21L0,21z M0.7,21.4c0,0-0.1,0-0.1-0.1C0.6,21.3,0.6,21.3,0.7,21.4C0.7,21.3,0.7,21.4,0.7,21.4
		C0.7,21.4,0.7,21.4,0.7,21.4L0.7,21.4z M0.7,21.4c0.1,0,0.1,0,0.2,0c0,0,0,0,0,0C0.8,21.4,0.8,21.4,0.7,21.4
		C0.7,21.4,0.7,21.4,0.7,21.4L0.7,21.4z M0.5,21.3C0.5,21.3,0.5,21.3,0.5,21.3C0.5,21.3,0.5,21.3,0.5,21.3
		C0.5,21.3,0.5,21.3,0.5,21.3C0.4,21.3,0.4,21.3,0.5,21.3L0.5,21.3z M0.1,21.1C0.1,21.1,0.1,21,0.1,21.1C0.1,21,0.1,21,0.1,21.1
		C0,21,0,21,0.1,21.1L0.1,21.1z M0.4,21.1C0.4,21.1,0.4,21.1,0.4,21.1C0.4,21.1,0.4,21.1,0.4,21.1C0.4,21.1,0.5,21.1,0.4,21.1
		C0.5,21.1,0.5,21.1,0.4,21.1C0.5,21.1,0.5,21.1,0.4,21.1L0.4,21.1z M4,22c-0.1,0-0.2-0.1-0.3-0.1c0,0,0,0,0-0.1c0.1,0,0.2,0,0.3,0
		C4.1,21.9,4.1,21.9,4,22C4.1,22,4,22,4,22L4,22z M0.6,21.2C0.6,21.1,0.6,21.1,0.6,21.2C0.6,21.1,0.6,21.1,0.6,21.2
		c0.1-0.1,0.1-0.1,0.1-0.1c0,0,0,0,0,0c0,0,0,0,0,0c0.2,0,0.1,0.1,0.2,0.1l0,0c0.1,0,0.2,0,0.3,0c0,0,0,0,0,0c0.1,0,0.1,0.1,0.2,0
		c0,0,0,0,0,0c0,0,0,0,0.3,0.1c0,0,0,0,0,0c0,0,0,0-0.2,0c0,0-0.1,0-0.1,0c0,0,0,0,0,0c0,0,0.1,0,0.1,0c0.1,0,0.3,0.1,0.4,0
		c0,0,0,0,0,0c0,0,0,0,0-0.1c0.2,0.1,0.2,0.1,0.4,0.1c0-0.1-0.1-0.1-0.2-0.1l0,0h0v0c0,0,0,0,0,0l0,0l0,0c0,0,0,0,0.1,0
		c0.1,0,0.2,0.1,0.3,0c0,0,0,0,0.1,0.1c0,0,0,0,0,0l0,0c0.1,0,0.1,0.1,0.2,0.1c0,0,0,0,0,0.1c0,0,0,0,0.1,0c0,0,0,0,0,0
		c0,0,0.1,0,0.1,0c0-0.1,0.3-0.1,0.4,0c0,0.1,0,0.1,0,0.2c0,0,0,0,0,0c0,0,0,0-0.1,0c-0.3,0-0.6-0.1-0.8-0.1c0,0,0,0,0,0.1
		c-0.1,0-0.3,0-0.4-0.1c0,0,0-0.1,0-0.1c-0.2,0-0.4-0.1-0.6-0.1c0,0,0,0,0,0c-0.1,0-0.1,0-0.2,0c0,0,0,0,0,0c-0.1,0-0.1,0-0.2,0
		c0,0,0,0,0,0c0,0,0,0-0.1,0c-0.1-0.2-0.3-0.1-0.4-0.2c0,0,0,0,0,0c0.1,0,0.1,0,0.2,0c0,0,0,0,0,0c-0.1,0,0-0.1-0.2-0.1c0,0,0,0,0,0
		c0,0,0-0.1-0.1-0.1C0.7,21.2,0.6,21.2,0.6,21.2L0.6,21.2z M0.3,21.1c-0.1,0-0.1,0-0.2-0.1C0.2,21,0.3,21,0.3,21.1
		C0.4,21.1,0.3,21.1,0.3,21.1L0.3,21.1z M0.3,21.3C0.3,21.3,0.3,21.2,0.3,21.3C0.3,21.2,0.4,21.2,0.3,21.3
		C0.4,21.3,0.4,21.3,0.3,21.3C0.4,21.3,0.3,21.3,0.3,21.3L0.3,21.3z M3.8,21.2C3.8,21.2,3.8,21.2,3.8,21.2c-0.1,0-0.1,0-0.1,0
		c0,0,0,0,0-0.1C3.8,21.2,3.8,21.2,3.8,21.2L3.8,21.2z M3.1,21.3L3.1,21.3C3,21.3,3,21.3,3.1,21.3C3,21.3,3,21.3,3.1,21.3
		c-0.1-0.1-0.1-0.1-0.1-0.1c0,0,0,0,0,0c0,0,0,0-0.1,0c0,0,0,0,0,0c0,0,0,0,0-0.1c0,0-0.1,0-0.1,0c-0.1-0.1-0.2-0.1-0.2-0.1
		c0,0,0,0,0,0c0,0,0,0,0.1,0c0,0,0,0,0-0.1c0,0-0.1,0-0.1,0c0,0,0,0,0,0c0,0-0.1,0-0.1,0c0,0,0,0,0,0c-0.2,0-0.3,0-0.4-0.1
		c0,0,0,0,0,0c0,0-0.1,0-0.1,0c0,0,0,0,0,0c0,0,0,0,0.1,0c0,0,0,0,0,0c0,0,0,0,0,0c0,0-0.1,0-0.1,0c0,0,0,0,0,0
		c-0.1,0-0.1,0-0.2-0.1c-0.1,0-0.1-0.1-0.3-0.1c0-0.1-0.1-0.1-0.2-0.1c-0.1-0.1-0.2-0.1-0.3,0c0,0,0,0,0,0c0,0,0,0,0-0.1
		c0,0,0,0,0,0c-0.1,0-0.3,0-0.3-0.1c-0.1,0-0.1,0-0.2,0c0,0,0,0,0,0c-0.1,0-0.1,0-0.1,0c0,0-0.1,0-0.1,0c-0.1,0-0.2,0-0.3,0
		c0,0,0,0,0,0c0,0,0.1,0,0.1,0c0,0,0,0,0,0c0.1,0,0.1,0,0.2,0.1c0.2,0,0.8,0,1,0.1c0,0,0,0,0,0c0,0,0,0,0.1,0c0,0,0,0,0-0.1
		c0.1,0,0.1,0,0.1,0.1c0.1,0,0.1,0,0.2,0c0,0,0,0,0,0c0.1,0,0.1,0,0.1,0c0,0,0,0,0-0.1c0.2,0,0.4,0,0.6,0c0,0,0,0,0,0.1c0,0,0,0,0,0
		c0,0,0,0,0,0c0,0,0,0,0,0c0.1,0,0.1,0,0.2,0c0,0,0,0,0,0c0,0,0,0,0.1,0c0,0,0,0,0,0c0,0,0,0-0.1,0c0,0,0,0,0,0c0,0,0.1,0,0.1,0
		c0,0,0,0,0.1,0.1c0,0,0.1,0,0.1,0c0,0,0,0,0,0.1c0,0,0,0,0,0c0.1,0.1,0.1,0.1,0.3,0.1c0,0,0,0,0,0c-0.1,0-0.2,0-0.3,0
		c0,0,0,0,0.1,0c0,0,0,0,0,0.1c-0.1,0-0.1,0-0.2,0c0,0,0,0-0.1,0c0,0,0,0,0,0c0,0,0,0,0,0c0,0,0,0,0,0c0.1,0,0.1,0,0.1,0
		c0,0,0,0,0.1,0c0,0,0,0,0,0c0,0,0,0-0.1,0c0,0,0,0,0,0c0.1,0,0.3,0.1,0.5,0c0,0,0,0,0-0.1c0,0,0,0-0.1,0c0,0,0-0.1,0-0.1
		c-0.1,0-0.1,0-0.1-0.1c0,0,0,0,0.2,0c0,0,0,0,0.1,0c0.1,0.1,0,0.1,0.1,0.2l0,0v0c0,0,0,0,0.1,0c0,0,0,0,0,0c0,0,0.1,0,0.1,0
		c0,0,0,0,0.1,0c0,0,0.1,0,0.1,0l0,0c0,0,0.1,0,0.1,0c0.1,0,0.3,0,0.4,0c0,0,0,0,0,0c0,0,0.1,0,0.1,0c0,0,0,0,0,0c0.1,0,0.1,0,0.2,0
		c0,0,0,0,0-0.1c0,0,0,0,0.1,0c0,0,0,0.1,0,0.1c0,0,0,0-0.1,0c0,0.1,0.1,0.1,0.2,0.1c0,0,0,0,0,0c0.1,0.1,0.2,0,0.3,0c0,0,0,0,0,0
		c0,0,0,0-0.1,0c0,0,0,0,0,0c0.1,0,0.2,0,0.2,0.1c0,0,0,0,0-0.1c0.1,0,0.2,0,0.2,0.1c0,0,0.1,0,0.1,0c0,0,0,0.1,0,0.1
		c0.3,0,0.4,0.1,0.6,0.2c0,0,0.1,0,0.1,0c0,0,0,0,0.1,0.1c0,0,0,0,0,0c0,0,0,0,0.1,0l0,0c0,0,0,0,0.1,0.1c0,0,0,0,0,0c0,0,0,0,0,0
		c-0.1,0-0.1,0-0.1,0c0,0,0,0,0,0c0,0,0,0,0,0c-0.1,0-0.3-0.1-0.4,0c-0.2-0.1-0.1-0.2-0.3-0.1c0,0,0,0-0.1,0c0,0,0,0,0,0
		c-0.1,0-0.1,0-0.2,0c0,0,0,0,0,0c-0.1,0-0.2,0-0.3-0.1c-0.1,0-0.1,0-0.2,0c-0.4,0-0.8-0.2-1.1-0.2C3.8,21.6,3.2,21.4,3.1,21.3
		C3.1,21.3,3.1,21.3,3.1,21.3L3.1,21.3C3.1,21.3,3.1,21.3,3.1,21.3C3.1,21.3,3.1,21.3,3.1,21.3L3.1,21.3z M3.1,21.3L3.1,21.3
		L3.1,21.3C3.1,21.3,3.1,21.3,3.1,21.3L3.1,21.3z M4,21.3C4,21.2,4,21.2,4,21.3C4,21.2,4.1,21.2,4,21.3C4.1,21.3,4,21.3,4,21.3
		L4,21.3z M4.3,22L4.3,22L4.3,22C4.3,22,4.3,22,4.3,22C4.2,22,4.2,22,4.2,22c0,0,0,0,0,0l0,0c0,0,0,0,0,0c0,0,0,0,0,0
		c0,0,0.1,0,0.1,0c0,0,0,0,0,0c0,0,0.1,0.1,0.1,0.1c0,0,0,0,0,0C4.4,22,4.4,22,4.3,22L4.3,22z M0.2,21.8C0.2,21.8,0.2,21.7,0.2,21.8
		C0.2,21.7,0.2,21.7,0.2,21.8C0.2,21.7,0.2,21.7,0.2,21.8C0.2,21.8,0.2,21.8,0.2,21.8L0.2,21.8z M0.4,21.8c0.1,0,0.1,0,0.1,0
		C0.5,21.8,0.5,21.8,0.4,21.8C0.4,21.8,0.4,21.8,0.4,21.8C0.3,21.8,0.3,21.8,0.4,21.8C0.3,21.8,0.3,21.8,0.4,21.8L0.4,21.8z
		 M3.6,21.7C3.6,21.7,3.6,21.7,3.6,21.7c0.1,0,0.2,0,0.3,0.1C3.7,21.8,3.7,21.7,3.6,21.7L3.6,21.7z M6,21.7
		C5.9,21.7,5.9,21.7,6,21.7C6,21.7,6,21.7,6,21.7C6,21.7,6,21.7,6,21.7L6,21.7z M3.4,21.1C3.4,21.1,3.4,21.1,3.4,21.1
		c0,0,0.1,0,0.1,0c0,0,0,0,0,0C3.5,21.1,3.5,21.1,3.4,21.1L3.4,21.1z M6.9,22C7,22,7,22,6.9,22C7,22.1,7,22.1,6.9,22
		C7,22.1,7,22.1,6.9,22C7,22.1,6.9,22,6.9,22L6.9,22z M7.1,22.1L7.1,22.1C7.1,22.1,7.1,22.1,7.1,22.1c0,0,0.1-0.1,0.1-0.1
		c0,0-0.1-0.1-0.1-0.1c0,0,0,0,0,0c0,0,0,0,0,0c0,0,0,0,0,0.1c0,0,0,0,0,0l0,0c0,0,0.1,0,0.1,0c0,0,0,0,0,0c0,0,0,0.1,0,0.1
		c0,0,0,0,0,0C7.3,22.2,7.3,22.1,7.1,22.1L7.1,22.1z M6.9,22C6.9,22,6.9,22,6.9,22C6.9,22,6.9,22,6.9,22C7,22,7,22,6.9,22
		C7,22,7,22,6.9,22C7,22,6.9,22,6.9,22L6.9,22z M4.5,21.4C4.5,21.4,4.5,21.4,4.5,21.4c-0.1,0-0.1,0-0.1,0c-0.2,0-0.1,0-0.2-0.1
		c0.1,0,0.1,0,0.2,0c0,0,0.2,0.1,0.3,0.1C4.6,21.4,4.6,21.4,4.5,21.4L4.5,21.4z M5.3,22C5.3,22,5.3,22,5.3,22C5.3,22,5.3,22,5.3,22
		C5.3,22,5.3,22,5.3,22L5.3,22z M2.3,21.4C2.2,21.4,2.2,21.4,2.3,21.4c-0.1-0.1-0.1-0.1-0.1-0.1c0,0,0,0,0,0
		C2.2,21.3,2.5,21.4,2.3,21.4L2.3,21.4z M2.1,22.4C2.2,22.4,2.2,22.4,2.1,22.4C2.2,22.4,2.1,22.4,2.1,22.4c-0.1,0.1-0.2,0-0.2,0
		c0,0,0,0,0,0C1.9,22.3,2.1,22.3,2.1,22.4L2.1,22.4z M2.3,22.4C2.2,22.4,2.2,22.4,2.3,22.4C2.3,22.4,2.3,22.4,2.3,22.4
		C2.3,22.4,2.3,22.4,2.3,22.4C2.3,22.4,2.3,22.4,2.3,22.4L2.3,22.4z M6.6,22.3C6.6,22.3,6.6,22.3,6.6,22.3
		C6.6,22.2,6.6,22.2,6.6,22.3C6.6,22.3,6.6,22.3,6.6,22.3C6.6,22.3,6.6,22.3,6.6,22.3L6.6,22.3z M2,21.4C2,21.3,2,21.3,2,21.4
		c-0.1,0-0.1,0-0.1-0.1C2,21.3,2,21.3,2,21.4C2,21.3,2,21.3,2,21.4L2,21.4z M6.9,21.9C6.9,21.9,6.9,21.9,6.9,21.9
		C6.8,21.9,6.8,21.9,6.9,21.9c-0.2,0-0.2,0-0.3,0C6.6,21.8,6.6,21.8,6.9,21.9L6.9,21.9z M6.5,22.5C6.5,22.5,6.5,22.5,6.5,22.5
		C6.5,22.4,6.5,22.4,6.5,22.5C6.5,22.5,6.6,22.5,6.5,22.5C6.6,22.5,6.6,22.5,6.5,22.5L6.5,22.5z M1.9,22.8c-0.2,0-0.3,0-0.5-0.1
		c0,0,0,0,0-0.1C1.5,22.7,1.7,22.7,1.9,22.8C1.9,22.7,1.9,22.7,1.9,22.8c0.1,0,0.1,0,0.2,0c0.1,0,0.1,0,0.2,0c0,0,0,0,0,0
		c0.2,0,0.4,0.1,0.5,0.1c-0.1,0-0.4,0-0.4,0c0,0,0,0,0,0c0-0.1,0-0.1-0.1-0.1c0,0,0,0,0,0c-0.1,0-0.1,0-0.2-0.1
		C2,22.8,2,22.8,1.9,22.8C1.9,22.8,1.9,22.8,1.9,22.8L1.9,22.8z M3.4,22.8C3.4,22.8,3.3,22.8,3.4,22.8C3.4,22.8,3.4,22.8,3.4,22.8
		C3.4,22.8,3.4,22.8,3.4,22.8C3.4,22.8,3.4,22.8,3.4,22.8C3.4,22.8,3.4,22.8,3.4,22.8C3.4,22.8,3.4,22.8,3.4,22.8L3.4,22.8z
		 M4.7,22.9c-0.2,0-0.4,0-0.6-0.1c-0.1,0-0.3,0-0.4,0c0,0,0,0,0,0c-0.2-0.1-0.4-0.1-0.6-0.2c0,0,0,0,0,0c-0.2,0-0.3-0.1-0.5-0.1
		c0,0,0,0,0,0c0,0-0.1,0-0.1,0c0,0,0,0,0,0c0.5,0,1,0.1,1.4,0.2c0,0,0,0,0,0c0.1,0,0.2,0.1,0.3,0C4.4,22.8,4.6,22.8,4.7,22.9
		C4.8,22.9,4.8,22.9,4.7,22.9c0.1,0,0.2,0,0.2,0C4.9,22.9,4.8,22.9,4.7,22.9L4.7,22.9z M5,22.9c0.1,0,0.2,0,0.3,0c0,0,0,0,0-0.1
		c0.1,0,0.1,0,0.2,0c0,0,0,0,0,0.1c0,0,0,0,0.1,0c0,0,0,0,0,0c0,0,0,0-0.1,0c0,0,0,0,0,0C5.3,23,5,23,5,22.9L5,22.9z M5.4,23
		C5.4,23,5.4,23,5.4,23C5.5,23,5.5,23,5.4,23C5.5,23,5.4,23,5.4,23C5.4,23,5.4,23,5.4,23L5.4,23z M2.9,23.2
		C2.9,23.2,2.9,23.1,2.9,23.2C2.9,23.1,3,23.1,2.9,23.2C3,23.1,3,23.1,2.9,23.2C3,23.2,3,23.2,2.9,23.2L2.9,23.2z M3.2,23.2
		C3.2,23.2,3.2,23.2,3.2,23.2C3.1,23.2,3.1,23.2,3.2,23.2C3.1,23.2,3.1,23.2,3.2,23.2C3.1,23.1,3.1,23.2,3.2,23.2L3.2,23.2z
		 M3.3,23.2c0.1,0,0.1,0,0.1,0c0.2,0,0.4,0,0.6,0.1c0,0,0,0,0,0.1c-0.1,0-0.5-0.1-0.6-0.1C3.4,23.2,3.3,23.2,3.3,23.2
		C3.3,23.2,3.3,23.2,3.3,23.2L3.3,23.2z M4.5,23.5C4.4,23.5,4.4,23.5,4.5,23.5C4.4,23.5,4.4,23.4,4.5,23.5
		C4.4,23.4,4.5,23.4,4.5,23.5C4.5,23.5,4.5,23.5,4.5,23.5C4.5,23.5,4.5,23.5,4.5,23.5L4.5,23.5z M4.5,23.5
		C4.5,23.5,4.5,23.5,4.5,23.5C4.6,23.5,4.6,23.5,4.5,23.5C4.6,23.5,4.6,23.5,4.5,23.5C4.6,23.5,4.6,23.5,4.5,23.5L4.5,23.5z
		 M5.3,23.7C5.3,23.7,5.3,23.6,5.3,23.7c0.1,0,0.1,0,0.1,0c0,0,0,0,0,0C5.4,23.7,5.4,23.7,5.3,23.7C5.3,23.7,5.3,23.7,5.3,23.7
		L5.3,23.7z M8.1,25C8.1,25,8.2,25,8.1,25C8.2,25,8.2,25,8.1,25C8.2,25.1,8.2,25,8.1,25L8.1,25z M5.7,24.6c0,0,0,0-0.1,0
		C5.6,24.5,5.7,24.5,5.7,24.6L5.7,24.6z M5.8,24.6C5.8,24.6,5.8,24.6,5.8,24.6c0.1,0,0.1,0,0.1,0c0,0,0.1,0,0.1,0
		c0,0,0.6,0.1,0.6,0.1c0.1,0,0.4,0,0.4,0.1c0,0,0,0,0,0c-0.1,0-0.1,0-0.2,0c0,0,0,0,0,0c0,0,0,0,0,0c0,0,0,0,0,0
		c-0.1,0-0.2-0.1-0.2,0c0,0,0,0-0.1,0c-0.1-0.1-0.3-0.1-0.4-0.1C6,24.6,5.9,24.6,5.8,24.6C5.9,24.6,5.8,24.6,5.8,24.6
		C5.8,24.6,5.8,24.6,5.8,24.6L5.8,24.6z M8.5,24.7C8.5,24.7,8.5,24.7,8.5,24.7C8.5,24.7,8.5,24.7,8.5,24.7
		C8.5,24.7,8.5,24.7,8.5,24.7C8.5,24.7,8.5,24.7,8.5,24.7L8.5,24.7z M9.1,24.9C9.1,24.9,9,24.9,9.1,24.9C9,24.9,9,24.9,9,24.8
		C9,24.8,9.1,24.9,9.1,24.9C9.1,24.9,9.1,24.9,9.1,24.9z"/>
	<linearGradient id="SVGID_2_" gradientUnits="userSpaceOnUse" x1="8.3652" y1="21.333" x2="8.3652" y2="2.5624">
		<stop  offset="0" style="stop-color:#009944"/>
		<stop  offset="0.29" style="stop-color:#C4D700"/>
		<stop  offset="0.7" style="stop-color:#00A0E9"/>
		<stop  offset="1" style="stop-color:#005BAC"/>
	</linearGradient>
	<path class="st1" d="M8.4,1.1C8.4,1.1,8.3,1,8.2,1c0.4,0.4,1.3,1.3,1.5,1.7C9.2,2,8.4,1.3,7.9,1C8,1.1,8.1,1.2,8.2,1.3
		c0.1,0.1,0.3,0.3,0.2,0.3c0-0.1,0-0.1-0.1-0.1C8.2,1.4,8,1.2,7.9,1.1C7.7,1,7.6,0.9,7.8,1.1C8.1,1.5,8,1.5,7.8,1.3
		C7.7,1.2,7.3,0.9,7.1,0.7l0,0l0,0c0.6,0.5,1.2,1.1,1.7,1.7c0.1,0.2,0.1,0.2,0,0C8.1,1.8,7.3,1,6.4,0.6l0,0L6.1,0.5l0.4,0.3l0,0
		L6,0.6l0,0l0,0L5.8,0.5l-0.1,0L5.7,0.4l-0.1,0L5.4,0.3l0,0c0-0.1-0.5-0.3-0.5-0.3l0,0l0,0l0,0.1l-0.1,0l-0.1,0l-0.1,0L4.5,0L4.2,0
		l0.3,0.1c0.1,0.1,0.2,0.1,0.3,0.1c0,0.1,0.1,0,0.2,0.1l0.1,0l0,0.1l0,0c0,0,0.1,0.1,0.2,0.1c0.1,0.1,0.1,0.1,0.1,0.1
		C5.5,0.8,5.6,1,5.7,1c0,0.1,0.2,0.1,0.2,0.2l0,0.1l0.1,0C6,1.2,6,1.3,6,1.3l0,0l0.1,0.1l0.1,0.1c0.9,1,1.5,2.6,1.7,4
		c0,0.2,0,0.2,0,0C7.8,5.2,7.7,4.8,7.5,4.4l0,0l0-0.1l0.1,0l0-0.1l-0.1,0l0,0l0,0L7.3,4l0,0l0,0L7.2,3.9l0,0l0,0l0,0l0-0.1l0,0l0,0
		l0,0l0-0.1l0,0c0-0.1,0-0.1-0.1-0.1L7.1,3.6l0,0l0.3,0.8l0,0.1L7.3,4.2c0,0-0.1,0-0.1-0.1l0-0.1L7.1,4l0,0.1c0,0,0,0,0,0.1
		c0,0,0.2,0.6,0.2,0.7L7.3,5l0-0.1c0,0,0,0-0.1,0l0-0.1c0-0.1-0.1-0.3-0.2-0.4l-0.1,0L7,4.2l0,0.1l0,0c0-0.1,0-0.2-0.1-0.2l0-0.1
		l0,0l0,0.1l0,0l0,0.2l0,0L6.7,3.9l0,0l0-0.1l0,0l0-0.1c0,0,0,0,0,0c0,0,0-0.1,0-0.1l0,0l0,0l0,0l0,0l0,0c0,0,0,0,0-0.1L6.4,3.3l0,0
		c0,0,0,0,0,0l0-0.1c-0.1,0,0-0.1-0.1-0.1l0,0l0,0c0,0,0,0,0,0.1c0.2,0.4,0.4,1.1,0.5,1.6c0.1,0.5,0.1,1.1,0.1,1.5
		c0,0.7-0.2,1.4-0.4,1.9c0,0.1,0,0.2-0.1,0.2c0,0,0,0,0,0c0,0-0.1,0-0.1,0.1l0,0L6.2,8.7c0,0,0,0,0,0.1c0,0,0,0.1,0,0.1L6.1,9l0,0.1
		C6.1,9.1,6.1,9.1,6.1,9.2C5.9,9.3,6,9.3,5.9,9.4l0,0.1c0,0.1,0,0.1,0,0.1c0,0-0.1,0-0.1,0.1l0,0.1l0,0c-0.1,0,0.1,0.2-0.1,0.1
		c0,0.1,0,0.1-0.1,0.1l0,0.1c-0.1,0-0.1,0-0.1,0.1l-0.1,0l0,0.2l-0.1,0l0,0.1l0.1,0c-0.1,0.1-0.1,0.1-0.1,0.2l0,0l0,0L5,11l0.1,0.1
		l0,0c-0.1-0.1-0.1,0-0.2,0.1c0,0.1-0.1,0.1-0.1,0.2l0,0.1l0,0.1l-0.2,0.1c0,0,0,0,0,0.1c0,0-0.1,0.1-0.1,0.1l0,0.1c0,0,0,0,0,0
		l0.1,0.1L4.4,12l0,0c0,0.1,0,0.1-0.1,0.2l0,0.1c0,0-0.1,0.1-0.1,0.1c0,0,0,0,0,0.1l-0.1,0.1l0,0.1l0.1,0l0,0.1c0,0-0.1,0.1-0.1,0.1
		l0,0.1l0,0l0,0.1c-0.1,0-0.1,0-0.1,0.1c0,0-0.1,0-0.1,0c0,0,0,0.1,0,0.1L4,13.3c0,0,0,0,0,0c0,0-0.1,0.1-0.1,0.1l0,0l0,0.1
		c0,0-0.1,0-0.1,0.1c0,0,0,0.1,0.1,0.1l0,0.1l0,0h0l0,0l-0.1,0.1l0,0.1l0,0.1l0,0l0,0.1l0,0l0,0.2c0,0,0,0,0,0l0,0c0,0,0,0,0.1,0.1
		c0,0,0,0,0,0.1l-0.1,0v0c0,0.1,0,0.2-0.1,0.2c0,0,0,0,0,0c0,0,0,0,0,0.1l0.1,0L3.6,15l0,0.1l0.1,0.1c0,0,0,0,0,0.1c0,0,0,0,0,0
		c-0.1,0.1-0.1,0.1,0,0.2l0,0c0,0.2,0,0.1-0.1,0.2l0,0l0.1,0l0,0.1l0,0l0,0.1l0,0v0l-0.1,0l0,0.1c0,0,0.1,0.1,0.1,0.1l0.1,0.1l0,0.1
		l-0.1,0.1c0,0.1,0.1,0.1,0.1,0.1l0,0l0.1,0l0.1,0L4,17l-0.1,0l0,0.1l0,0l0,0c0,0.1,0,0.1,0.1,0.1l0,0.1c0.1,0,0.1,0.2,0,0.3l0,0
		l0.1,0.1l0,0l0,0l0,0l0.1,0.1l0,0c0,0.1-0.1,0-0.1,0.1c0,0,0,0,0.1,0l0,0.1l-0.1,0l0.1,0c0,0.1,0,0.1,0.1,0.1c0,0,0,0,0,0.1l0,0.1
		c0,0,0.1,0.1,0.1,0.1l0,0l0.1,0.2l0,0.1l0,0l0.1,0.1c0.1,0,0,0.1,0,0.1c0,0-0.1,0-0.1,0.1l0.2,0.1l0,0.1c0.1,0,0,0,0.1,0
		c0,0,0.1,0,0.1,0c0,0.1,0,0.1,0.1,0.1l0,0.1l0.1,0.1l0.1,0l0,0l0.1,0l-0.1,0.1l0,0l0.1,0l0,0.1l0.1,0.1l0.2,0l0,0l0,0l0,0
		c0,0,0,0,0.1,0.1l0,0.1c0,0,0,0,0.1,0l0.1,0l0,0C6,19.9,6,20,6,20c0.1,0,0.1,0,0,0.1l0.1,0l0,0l0.1,0.1l0.1,0l0.1,0.1l0.2,0.1
		c0.1,0.1,0.2,0.1,0.2,0.2c0,0,0.2,0.1,0.2,0.1l0,0.1l0.1,0c0,0,0,0.1,0.1,0.1l0.1,0L7.6,21c0,0.1,0,0.1,0.1,0.1c0.1,0,0.1,0,0.1,0
		c0.2,0,0.1,0,0.2,0.1l0.2,0c0,0,0.1,0.1,0.2,0.1h0.1l0.1,0.1c0.1,0,0.1,0,0.3,0c0,0,0,0,0,0l0,0.1c0.1,0,0.1,0,0.2,0.1l0.1,0l0,0
		l0.1,0l0,0l0.2,0c0,0.1,0.1,0.1,0.2,0.1c0.1,0,0.1,0.1,0.2,0.1c0,0,0.1,0,0.1,0c0,0,0,0,0.1,0c0,0,0,0,0.1,0l0,0.1l0.2,0l0,0
		l0.1,0.1l0.2,0l0-0.1l0.1,0.1c0,0,0,0,0.1,0c0,0,0.2,0,0.2,0.1l0.1,0c0-0.1,0,0,0.1,0l0,0l0.1,0l0.1,0.1c0.1,0,0.1-0.1,0.2,0l0.1,0
		c0.1,0,0,0,0.1,0l0-0.1c0,0,0.1,0,0.1,0c0,0,0,0,0,0l0.1,0l0.1,0l0,0l0.1,0l0,0l0.1,0l0.1,0l0.1,0c0,0.1,0,0,0.1,0
		c0-0.1,0.2,0,0.2,0l0,0l0,0l0,0l0.2,0l0.1,0c0,0-0.4-0.1-0.4,0l0,0l-0.1,0c-0.1,0-0.2,0-0.2,0c-0.1,0-0.2,0-0.2,0c0,0-0.1,0-0.1,0
		c-0.2,0-0.2,0-0.2,0c0,0-0.1,0-0.1,0c0,0-0.1,0-0.2,0l-0.2,0l0-0.1l0,0c-0.1-0.1-0.2,0-0.3-0.1c0,0-0.1,0-0.1,0h0l0,0
		c0,0-0.1,0-0.2-0.1c-0.1,0-0.1,0-0.3-0.1l-0.2-0.1c-0.1,0-0.2-0.1-0.3-0.1c-0.1,0-0.2,0-0.2-0.1l0,0l0,0l0,0l-0.1,0
		c-0.1-0.1,0,0-0.4-0.2c-0.1,0-0.1-0.1-0.2-0.1c0,0-0.1-0.1-0.2-0.1c-0.1-0.1,0-0.1-0.1-0.1l-0.1-0.1l-0.1-0.1l0-0.1
		c0,0-0.1,0-0.1-0.1c0-0.1-0.1-0.1-0.2-0.2c-0.1,0,0,0,0-0.1c-0.1-0.1,0.1,0-0.1-0.1c-0.1-0.1-0.2-0.2-0.3-0.3l0-0.1l-0.1-0.1l0-0.1
		l-0.2-0.3l0,0l-0.1-0.1l0,0l-0.1-0.1l0,0l-0.1-0.1c0,0,0,0,0-0.1c-0.2-0.2-0.1-0.5-0.2-0.7c0-0.1,0-0.3,0-0.4c0-0.1,0-0.1,0-0.2
		c0-0.2,0,0,0-0.2l0,0l0-0.1c0,0,0,0-0.1,0l0,0l0-0.1l-0.1-0.2l0.1-0.1l0,0l0,0l0-0.1l0,0l0,0l0,0l0-0.1c0-0.1,0-0.1,0-0.1
		c0,0,0.1-0.1,0.1-0.1l0,0c0,0,0,0,0,0L7.6,16l0,0l0,0c0.1,0,0-0.1,0-0.1c0,0,0,0,0.1,0c0.1,0,0-0.1,0.1-0.2c0,0,0-0.1,0-0.1
		c0-0.1,0,0,0-0.1l0.1,0c0-0.1,0.1-0.1,0-0.1l0-0.1l0,0c0.1,0,0-0.1,0.1-0.2c0.1-0.1,0-0.1,0.1-0.2l0,0l0,0c0,0,0.1-0.1,0.1-0.1
		c-0.1,0,0-0.1,0-0.1L8.3,14c0,0,0,0,0-0.1c0,0,0,0,0,0c0.1-0.2,0.1-0.2,0.2-0.4c0.4-0.8,0.9-1.6,1.3-2.4C12,7.6,12.2,3.6,8.4,1.1
		L8.4,1.1z M8.4,1.6L8.4,1.6l0.2,0.2l-0.1,0L8.4,1.6L8.4,1.6z M6.5,3.5C6.4,3.5,6.5,3.5,6.5,3.5L6.5,3.5z M7.2,3.8L7.2,3.8L7.2,3.8
		L7.2,3.8z M6.8,4.3c0,0,0.1,0.1,0,0.1L6.8,4.3z"/>
	<g>
		<path class="st2" d="M15,29.5L15,29.5c0,0.1,0,0.2,0.1,0.3v0.1c0,0.1-0.2,0.2-0.5,0.3l0,0v0l0.1,0.1l0,0.1c0,0,0.1,0.1,0.2,0.2
			l0,0h0l0.1,0c0,0-0.1,0.2-0.3,0.4l0.1,0.1c0,0.1-0.1,0.2-0.3,0.3l-0.1,0.1l0,0.3l-0.3,0.7h-0.1c0,0-0.1,0-0.1-0.1
			c0,0-0.1-0.1-0.1-0.2h-0.1v0l0,0l-0.1,0.5C13.9,32.9,14,33,14,33h0c0.2,0,0.5-0.4,0.8-1.2c0-0.1,0.1-0.2,0.4-0.2h0.1
			C15.1,31.7,15,31.8,15,32c0,0-0.1,0-0.2,0.1v0.3l-0.1,0.2c0.1,0.2,0.1,0.4,0.2,0.4c0.3-0.1,0.5-0.3,0.6-0.6
			c0.1-0.2,0.1-0.3,0.2-0.4h0v0.1l0,0.1l0,0v0l0,0l0,0l0,0.1c0.1,0.3,0.2,0.5,0.5,0.5h0.1c0.2,0,0.4-0.1,0.4-0.2h0.1l-0.2-0.5h-0.1
			l0,0v0.2c0,0.1-0.1,0.2-0.2,0.2c-0.2,0-0.3-0.1-0.3-0.3v-0.1l0-0.1l0-0.1l0,0c-0.1-0.3-0.1-0.4-0.2-0.4c-0.1,0-0.2,0.2-0.3,0.5
			c-0.1,0.2-0.3,0.3-0.4,0.4h-0.1v0c0-0.1,0.1-0.3,0.3-0.4v-0.1l-0.1-0.1v-0.1c0.2-0.3,0.4-0.5,0.7-0.5l0.2-0.1v-0.1h-0.2l-0.2,0
			c0.2-0.2,0.3-0.4,0.3-0.4v-0.1l-0.1-0.1h-0.1l-0.2,0l-0.1-0.1h-0.1c-0.1,0.1-0.2,0.2-0.3,0.2h-0.1v0c0.1-0.1,0.3-0.2,0.6-0.3
			l0.1-0.1v-0.1c0-0.1-0.1-0.2-0.3-0.3C15.8,29.7,15.5,29.6,15,29.5L15,29.5z M15.6,31c0,0.1-0.1,0.1-0.2,0.1v-0.1
			C15.4,31,15.5,31,15.6,31L15.6,31z M15.2,31.1L15.2,31.1L15.2,31.1l0,0.1h-0.1L15.2,31.1L15.2,31.1z M16.5,31.3
			c0.3,0.1,0.4,0.2,0.4,0.3c0,0.1-0.1,0.2-0.3,0.2l-0.3-0.2v0L16.5,31.3L16.5,31.3z M18.3,30.2L18.3,30.2l0.1,0
			c0.1,0,0.2,0.1,0.2,0.1l-0.3,0.3c-0.1,0-0.1-0.1-0.1-0.3h-0.1c-0.1,0-0.1,0.1-0.1,0.3h0l0,0l0,0.3c0,0.2,0.1,0.3,0.2,0.4h0.1
			c0.1-0.1,0.2-0.2,0.2-0.3l-0.1-0.2c0-0.2,0.2-0.3,0.5-0.5v0l0,0.2h-0.1v0.1c0.3,0,0.4-0.1,0.4-0.2c0-0.1-0.1-0.1-0.2-0.1H19v0
			c0-0.1,0.2-0.2,0.6-0.3l0,0v0c-0.2,0.5-0.3,0.8-0.4,0.8h-0.1c0,0-0.1-0.1-0.2-0.1l-0.1,0l-0.2,0l0,0.1c0.1,0.1,0.1,0.2,0.1,0.3
			c-0.1,0.2-0.1,0.7-0.2,1.5c0,0.1,0.1,0.1,0.1,0.2h0v-0.1l0-0.3l0.1-0.5l0,0c0-0.4,0.1-0.7,0.3-0.8c0.4-0.4,0.7-0.8,0.8-1.3v0
			l-0.1-0.1h0c-0.2,0-0.5,0.1-1,0.4h0l0-0.1c0-0.1-0.1-0.2-0.3-0.4h-0.1C18.5,29.6,18.5,29.8,18.3,30.2L18.3,30.2L18.3,30.2
			L18.3,30.2z M19.6,31.4L19.6,31.4c0.2,0,0.2,0.1,0.2,0.2v0.1l-0.1,0.2V32c0.4,0.1,0.6,0.2,0.6,0.3c0,0.1,0,0.1-0.1,0.1
			c0,0.1-0.1,0.2-0.3,0.3h-0.1c-0.5-0.1-0.8-0.4-0.8-0.9l0.1,0c0.2,0,0.3-0.1,0.4-0.3L19.6,31.4L19.6,31.4z M17.9,32
			c0.1-0.3,0.3-0.4,0.4-0.4l0.1,0.1v0l0,0l0.1,0.4l0,0.4c0,0.2-0.2,0.4-0.5,0.5h-0.1v-0.1l0.1-0.1l0.1,0.1H18c0.1,0,0.2-0.2,0.3-0.6
			l-0.1-0.5h0C18.1,31.9,18,32,18,32.1C17.9,32.1,17.9,32.1,17.9,32L17.9,32z"/>
		<path class="st2" d="M12.9,32c-0.1,0-0.2,0-0.2,0.1c0,0.1,0.1,0.2,0.2,0.3c0.1,0,0.2,0,0.2-0.1C13,32.2,13,32.1,12.9,32z"/>
		<g>
			<path class="st2" d="M9.8,30.4c0,0,0,0.1,0.1,0c0,0-0.1,0.2-0.4,0.2c-0.1,0.2,0.1,0.3,0.3,0.2c0.2-0.1,0.4-0.2,0.6-0.2
				c0.3-0.1,0.7,0,0.4,0.3c-0.6,0.8-2.1,1.4-2.8,1.7c0.1,0,0.7-0.2,0.9-0.3c0.2-0.1,0.1,0,0.1,0c-0.1,0,0,0-0.1,0.1
				c-0.1,0.1-0.4,0.2-0.4,0.2c0.1,0,0.7-0.3,0.9-0.3c0.2-0.1,0,0,0,0c-0.1,0.1-0.2,0.1-0.1,0.1c0.2-0.1,0.5-0.2,0.6-0.2
				c0,0,0,0-0.1,0.1c-0.2,0.1-0.6,0.3-0.8,0.4c0.7-0.2,2.1-0.8,2.6-1.7c0.4-0.6,0-1.1-0.8-0.9C10.5,30.1,10.2,30.2,9.8,30.4z"/>
			<path class="st2" d="M5.2,30.7c0,0,0,0.2,0.2,0.1c0.2,0,0.4,0,0.2,0.3c-0.2,0.3-0.8,0.8-1,0.9c-0.2,0.1-0.4,0.2-0.5,0.3
				c-0.1,0-0.5,0.2-0.1,0.2c0,0-0.7,0.4,0,0.3c0.6-0.1,1.4-0.6,2-1c0.4-0.3,0.9-0.6,1.3-0.6c0,0-0.6,0-1.2,0.3c0,0,0.4-0.3,0.7-0.4
				c0,0-0.8,0.3-1.1,0.5c0,0,0.3-0.3,0.5-0.6c0.4-0.7-0.2-1-0.7-0.8C5,30.4,4.8,30.9,5.2,30.7z"/>
			<path class="st2" d="M7.7,32.5c0,0-0.1-0.1,0.1-0.3c0,0-0.2,0-0.5,0.5c0,0-0.1-0.1,0.2-0.5c0,0,0.4-0.6,0.6-1
				c0.2-0.3,0-0.4-0.3-0.1c0.2-0.3,1.1-1.5,1-0.5C8.8,31.2,8.2,32.1,7.7,32.5z"/>
			<path class="st2" d="M6.7,31.6c0,0,0.7-0.4,1.5-0.4c-0.2,0-0.9,0.3-1.3,0.6c-0.3,0.2-0.3,0.5-0.1,0.5c0.2,0,0.4-0.1,0.5-0.3
				c0.1-0.1,0.1-0.2-0.1-0.2c0.4-0.3,0.6,0,0.3,0.3c-0.2,0.3-0.5,0.5-0.7,0.7c-0.6,0.3-0.9-0.4-0.3-0.9C6.4,31.7,6.6,31.6,6.7,31.6z
				"/>
			<polygon class="st2" points="10.8,30.7 10.8,30.7 10.8,30.7 			"/>
			<path class="st2" d="M10.1,32.7c0,0,0,0,0.2,0c0.1,0-0.2-0.1-0.4-0.3c0,0,1.5,0.4,1.1-0.2c-0.5-0.6-1.7-1-2.3-1.1
				c0.1,0,0.5,0.1,0.7,0.1c0.1,0,0.1,0,0.1,0c0,0,0,0-0.1,0c-0.1,0-0.4-0.1-0.4-0.1c0,0,0.6,0.1,0.7,0.2c0.1,0,0,0,0,0
				c-0.1,0-0.2-0.1-0.1-0.1c0.2,0,0.4,0.1,0.5,0.1c0,0,0,0-0.1-0.1C9.8,31.1,9.5,31,9.3,31c0.6,0.1,1.7,0.5,2.1,1.1
				c0.3,0.5,0.1,0.9-0.6,0.9C10.7,33,10.4,32.9,10.1,32.7z"/>
		</g>
	</g>
</g>
</svg>
